<svg width="12" height="16" viewBox="0 0 12 16" fill="none" xmlns="http://www.w3.org/2000/svg">
<path fill-rule="evenodd" clip-rule="evenodd" d="M3.33342 0C3.05727 0 2.83342 0.223858 2.83342 0.5C2.83342 0.776142 3.05727 1 3.33342 1H8.66675C8.94289 1 9.16675 0.776142 9.16675 0.5C9.16675 0.223858 8.94289 0 8.66675 0H3.33342ZM2.33342 3.66667H9.66675V14.8333L2.33341 14.8333L2.33342 3.66667ZM9.66675 2.5C9.87121 2.5 10.0613 2.56136 10.2197 2.66667H11.3334C11.6096 2.66667 11.8334 2.89052 11.8334 3.16667C11.8334 3.44281 11.6096 3.66667 11.3334 3.66667H10.6667V14.8333C10.6667 15.3856 10.219 15.8333 9.66675 15.8333H2.33341C1.78113 15.8333 1.33342 15.3856 1.33342 14.8333V3.66667H0.666748C0.390606 3.66667 0.166748 3.44281 0.166748 3.16667C0.166748 2.89052 0.390606 2.66667 0.666748 2.66667H1.78045C1.93883 2.56136 2.12896 2.5 2.33342 2.5H9.66675Z" fill="#000000"/>
</svg>
